<svg width="512" height="512" viewBox="0 0 512 512" xmlns="http://www.w3.org/2000/svg" role="img" aria-label="Ícone do SIFAU">
  <defs>
    <linearGradient id="bg" x1="0%" y1="0%" x2="100%" y2="100%">
      <stop offset="0%" stop-color="#0f2557"/>
      <stop offset="50%" stop-color="#1e3a8a"/>
      <stop offset="100%" stop-color="#1d4ed8"/>
    </linearGradient>
    <linearGradient id="gold" x1="0%" y1="0%" x2="100%" y2="100%">
      <stop offset="0%" stop-color="#f59e0b"/>
      <stop offset="100%" stop-color="#d97706"/>
    </linearGradient>
    <linearGradient id="ok" x1="0%" y1="0%" x2="100%" y2="100%">
      <stop offset="0%" stop-color="#10b981"/>
      <stop offset="100%" stop-color="#059669"/>
    </linearGradient>
  </defs>
  <rect x="0" y="0" width="512" height="512" rx="104" fill="url(#bg)"/>
  <path d="M256 72 L390 137 C390 145 388 280 256 389 C124 280 122 145 122 137 Z" fill="#ffffff" opacity="0.96"/>
  <path d="M256 72 L390 137 C390 145 388 280 256 389 C124 280 122 145 122 137 Z" fill="none" stroke="url(#gold)" stroke-width="7" opacity="0.9"/>
  <circle cx="256" cy="214" r="58" fill="none" stroke="#1e3a8a" stroke-width="14"/>
  <line x1="300" y1="257" x2="341" y2="298" stroke="#1e3a8a" stroke-width="16" stroke-linecap="round"/>
  <line x1="300" y1="257" x2="341" y2="298" stroke="url(#gold)" stroke-width="9" stroke-linecap="round" opacity="0.7"/>
  <polyline points="236,216 251,233 281,196" fill="none" stroke="url(#ok)" stroke-width="12" stroke-linecap="round" stroke-linejoin="round"/>
  <text x="256" y="451" text-anchor="middle" font-family="Segoe UI, Arial, sans-serif" font-size="62" font-weight="900" fill="#ffffff" letter-spacing="7">SIFAU</text>
</svg>
